<?xml version="1.0" encoding="UTF-8" standalone="no"?>
<!DOCTYPE svg PUBLIC "-//W3C//DTD SVG 1.1//EN"
 "http://www.w3.org/Graphics/SVG/1.1/DTD/svg11.dtd">
<!-- Generated by graphviz version 2.47.3 (20210619.1520)
 -->
<!-- Title: dependencies Pages: 1 -->
<svg width="638pt" height="250pt"
 viewBox="0.00 0.00 638.00 249.80" xmlns="http://www.w3.org/2000/svg" xmlns:xlink="http://www.w3.org/1999/xlink">
<g id="graph0" class="graph" transform="scale(1 1) rotate(0) translate(4 245.8)">
<title>dependencies</title>
<polygon fill="white" stroke="transparent" points="-4,4 -4,-245.8 634,-245.8 634,4 -4,4"/>
<text text-anchor="middle" x="315" y="-8.2" font-family="sans-serif" font-size="14.00">dependencies</text>
<g id="clust1" class="cluster">
<title>cluster_AppModule</title>
<polygon fill="none" stroke="black" stroke-dasharray="1,5" points="14,-108.8 14,-233.8 500,-233.8 500,-108.8 14,-108.8"/>
</g>
<g id="clust3" class="cluster">
<title>cluster_AppModule_imports</title>
<polygon fill="none" stroke="black" points="160,-116.8 160,-168.8 492,-168.8 492,-116.8 160,-116.8"/>
</g>
<g id="clust6" class="cluster">
<title>cluster_AppModule_providers</title>
<polygon fill="none" stroke="black" points="22,-116.8 22,-168.8 152,-168.8 152,-116.8 22,-116.8"/>
</g>
<g id="clust7" class="cluster">
<title>cluster_AuthModule</title>
<polygon fill="none" stroke="black" stroke-dasharray="1,5" points="310,-32.8 310,-100.8 456,-100.8 456,-32.8 310,-32.8"/>
</g>
<g id="clust12" class="cluster">
<title>cluster_AuthModule_providers</title>
<polygon fill="none" stroke="black" points="318,-40.8 318,-92.8 448,-92.8 448,-40.8 318,-40.8"/>
</g>
<g id="clust13" class="cluster">
<title>cluster_LoggerModule</title>
<polygon fill="none" stroke="black" stroke-dasharray="1,5" points="8,-32.8 8,-100.8 302,-100.8 302,-32.8 8,-32.8"/>
</g>
<g id="clust16" class="cluster">
<title>cluster_LoggerModule_exports</title>
<polygon fill="none" stroke="black" points="16,-40.8 16,-92.8 134,-92.8 134,-40.8 16,-40.8"/>
</g>
<g id="clust18" class="cluster">
<title>cluster_LoggerModule_providers</title>
<polygon fill="none" stroke="black" points="142,-40.8 142,-92.8 294,-92.8 294,-40.8 142,-40.8"/>
</g>
<g id="clust19" class="cluster">
<title>cluster_NotesModule</title>
<polygon fill="none" stroke="black" stroke-dasharray="1,5" points="464,-32.8 464,-100.8 622,-100.8 622,-32.8 464,-32.8"/>
</g>
<g id="clust24" class="cluster">
<title>cluster_NotesModule_providers</title>
<polygon fill="none" stroke="black" points="472,-40.8 472,-92.8 614,-92.8 614,-40.8 472,-40.8"/>
</g>
<!-- AuthModule -->
<g id="node1" class="node">
<title>AuthModule</title>
<polygon fill="#8dd3c7" stroke="black" points="373.55,-160.8 370.55,-164.8 349.55,-164.8 346.55,-160.8 286.45,-160.8 286.45,-124.8 373.55,-124.8 373.55,-160.8"/>
<text text-anchor="middle" x="330" y="-138.6" font-family="Times,serif" font-size="14.00">AuthModule</text>
</g>
<!-- AppModule -->
<g id="node4" class="node">
<title>AppModule</title>
<polygon fill="#8dd3c7" stroke="black" points="315.66,-225.8 312.66,-229.8 291.66,-229.8 288.66,-225.8 232.34,-225.8 232.34,-189.8 315.66,-189.8 315.66,-225.8"/>
<text text-anchor="middle" x="274" y="-203.6" font-family="Times,serif" font-size="14.00">AppModule</text>
</g>
<!-- AuthModule&#45;&gt;AppModule -->
<g id="edge1" class="edge">
<title>AuthModule&#45;&gt;AppModule</title>
<path fill="none" stroke="black" d="M301.03,-160.91C301.03,-160.91 301.03,-179.79 301.03,-179.79"/>
<polygon fill="black" stroke="black" points="297.53,-179.79 301.03,-189.79 304.53,-179.79 297.53,-179.79"/>
</g>
<!-- LoggerModule -->
<g id="node2" class="node">
<title>LoggerModule</title>
<polygon fill="#8dd3c7" stroke="black" points="267.98,-160.8 264.98,-164.8 243.98,-164.8 240.98,-160.8 168.02,-160.8 168.02,-124.8 267.98,-124.8 267.98,-160.8"/>
<text text-anchor="middle" x="218" y="-138.6" font-family="Times,serif" font-size="14.00">LoggerModule</text>
</g>
<!-- LoggerModule&#45;&gt;AppModule -->
<g id="edge2" class="edge">
<title>LoggerModule&#45;&gt;AppModule</title>
<path fill="none" stroke="black" d="M250.08,-160.91C250.08,-160.91 250.08,-179.79 250.08,-179.79"/>
<polygon fill="black" stroke="black" points="246.58,-179.79 250.08,-189.79 253.58,-179.79 246.58,-179.79"/>
</g>
<!-- LoggerService  -->
<g id="node7" class="node">
<title>LoggerService </title>
<polygon fill="#fb8072" stroke="black" points="125.91,-84.8 24.09,-84.8 24.09,-48.8 125.91,-48.8 125.91,-84.8"/>
<text text-anchor="middle" x="75" y="-62.6" font-family="Times,serif" font-size="14.00">LoggerService </text>
</g>
<!-- LoggerModule&#45;&gt;LoggerService  -->
<g id="edge6" class="edge">
<title>LoggerModule&#45;&gt;LoggerService </title>
<path fill="none" stroke="black" stroke-dasharray="5,2" d="M201.34,-124.77C201.34,-117.95 201.34,-111.8 201.34,-111.8 201.34,-111.8 78.17,-111.8 78.17,-111.8 78.17,-111.8 78.17,-94.84 78.17,-94.84"/>
<polygon fill="black" stroke="black" points="81.67,-94.84 78.17,-84.84 74.67,-94.84 81.67,-94.84"/>
</g>
<!-- NotesModule -->
<g id="node3" class="node">
<title>NotesModule</title>
<polygon fill="#8dd3c7" stroke="black" points="484.21,-160.8 481.21,-164.8 460.21,-164.8 457.21,-160.8 391.79,-160.8 391.79,-124.8 484.21,-124.8 484.21,-160.8"/>
<text text-anchor="middle" x="438" y="-138.6" font-family="Times,serif" font-size="14.00">NotesModule</text>
</g>
<!-- NotesModule&#45;&gt;AppModule -->
<g id="edge3" class="edge">
<title>NotesModule&#45;&gt;AppModule</title>
<path fill="none" stroke="black" d="M438,-160.91C438,-180.14 438,-207.8 438,-207.8 438,-207.8 325.81,-207.8 325.81,-207.8"/>
<polygon fill="black" stroke="black" points="325.81,-204.3 315.81,-207.8 325.81,-211.3 325.81,-204.3"/>
</g>
<!-- AppService -->
<g id="node5" class="node">
<title>AppService</title>
<ellipse fill="#fdb462" stroke="black" cx="87" cy="-142.8" rx="56.74" ry="18"/>
<text text-anchor="middle" x="87" y="-138.6" font-family="Times,serif" font-size="14.00">AppService</text>
</g>
<!-- AppService&#45;&gt;AppModule -->
<g id="edge4" class="edge">
<title>AppService&#45;&gt;AppModule</title>
<path fill="none" stroke="black" d="M87,-160.91C87,-180.14 87,-207.8 87,-207.8 87,-207.8 222.03,-207.8 222.03,-207.8"/>
<polygon fill="black" stroke="black" points="222.03,-211.3 232.03,-207.8 222.03,-204.3 222.03,-211.3"/>
</g>
<!-- JwtStrategy -->
<g id="node6" class="node">
<title>JwtStrategy</title>
<ellipse fill="#fdb462" stroke="black" cx="383" cy="-66.8" rx="56.76" ry="18"/>
<text text-anchor="middle" x="383" y="-62.6" font-family="Times,serif" font-size="14.00">JwtStrategy</text>
</g>
<!-- JwtStrategy&#45;&gt;AuthModule -->
<g id="edge5" class="edge">
<title>JwtStrategy&#45;&gt;AuthModule</title>
<path fill="none" stroke="black" d="M350.07,-81.45C350.07,-81.45 350.07,-114.7 350.07,-114.7"/>
<polygon fill="black" stroke="black" points="346.57,-114.7 350.07,-124.7 353.57,-114.7 346.57,-114.7"/>
</g>
<!-- LoggerService -->
<g id="node8" class="node">
<title>LoggerService</title>
<ellipse fill="#fdb462" stroke="black" cx="218" cy="-66.8" rx="67.76" ry="18"/>
<text text-anchor="middle" x="218" y="-62.6" font-family="Times,serif" font-size="14.00">LoggerService</text>
</g>
<!-- LoggerService&#45;&gt;LoggerModule -->
<g id="edge7" class="edge">
<title>LoggerService&#45;&gt;LoggerModule</title>
<path fill="none" stroke="black" d="M234.66,-84.43C234.66,-84.43 234.66,-114.74 234.66,-114.74"/>
<polygon fill="black" stroke="black" points="231.16,-114.74 234.66,-124.74 238.16,-114.74 231.16,-114.74"/>
</g>
<!-- LoggerService&#45;&gt;NotesModule -->
<g id="edge8" class="edge">
<title>LoggerService&#45;&gt;NotesModule</title>
<path fill="none" stroke="black" d="M276.93,-75.88C276.93,-85.34 276.93,-98.8 276.93,-98.8 276.93,-98.8 415.76,-98.8 415.76,-98.8 415.76,-98.8 415.76,-114.65 415.76,-114.65"/>
<polygon fill="black" stroke="black" points="412.26,-114.65 415.76,-124.65 419.26,-114.65 412.26,-114.65"/>
</g>
<!-- NotesService -->
<g id="node9" class="node">
<title>NotesService</title>
<ellipse fill="#fdb462" stroke="black" cx="543" cy="-66.8" rx="62.54" ry="18"/>
<text text-anchor="middle" x="543" y="-62.6" font-family="Times,serif" font-size="14.00">NotesService</text>
</g>
<!-- NotesService&#45;&gt;NotesModule -->
<g id="edge9" class="edge">
<title>NotesService&#45;&gt;NotesModule</title>
<path fill="none" stroke="black" d="M480.13,-66.8C468.57,-66.8 460.06,-66.8 460.06,-66.8 460.06,-66.8 460.06,-114.79 460.06,-114.79"/>
<polygon fill="black" stroke="black" points="456.56,-114.79 460.06,-124.79 463.56,-114.79 456.56,-114.79"/>
</g>
</g>
</svg>
