<?xml version="1.0" encoding="UTF-8" standalone="no"?>
<!DOCTYPE svg PUBLIC "-//W3C//DTD SVG 1.1//EN"
 "http://www.w3.org/Graphics/SVG/1.1/DTD/svg11.dtd">
<!-- Generated by graphviz version 2.47.3 (20210619.1520)
 -->
<!-- Title: dependencies Pages: 1 -->
<svg width="335pt" height="174pt"
 viewBox="0.00 0.00 335.00 173.80" xmlns="http://www.w3.org/2000/svg" xmlns:xlink="http://www.w3.org/1999/xlink">
<g id="graph0" class="graph" transform="scale(1 1) rotate(0) translate(4 169.8)">
<title>dependencies</title>
<polygon fill="white" stroke="transparent" points="-4,4 -4,-169.8 331,-169.8 331,4 -4,4"/>
<text text-anchor="middle" x="163.5" y="-8.2" font-family="sans-serif" font-size="14.00">dependencies</text>
<g id="clust1" class="cluster">
<title>cluster_NotesModule</title>
<polygon fill="none" stroke="black" stroke-dasharray="1,5" points="8,-32.8 8,-157.8 319,-157.8 319,-32.8 8,-32.8"/>
</g>
<g id="clust6" class="cluster">
<title>cluster_NotesModule_providers</title>
<polygon fill="none" stroke="black" points="16,-40.8 16,-92.8 311,-92.8 311,-40.8 16,-40.8"/>
</g>
<!-- LoggerService -->
<g id="node1" class="node">
<title>LoggerService</title>
<ellipse fill="#fdb462" stroke="black" cx="235" cy="-66.8" rx="67.76" ry="18"/>
<text text-anchor="middle" x="235" y="-62.6" font-family="Times,serif" font-size="14.00">LoggerService</text>
</g>
<!-- NotesModule -->
<g id="node3" class="node">
<title>NotesModule</title>
<polygon fill="#8dd3c7" stroke="black" points="207.21,-149.8 204.21,-153.8 183.21,-153.8 180.21,-149.8 114.79,-149.8 114.79,-113.8 207.21,-113.8 207.21,-149.8"/>
<text text-anchor="middle" x="161" y="-127.6" font-family="Times,serif" font-size="14.00">NotesModule</text>
</g>
<!-- LoggerService&#45;&gt;NotesModule -->
<g id="edge1" class="edge">
<title>LoggerService&#45;&gt;NotesModule</title>
<path fill="none" stroke="black" d="M187.11,-79.64C187.11,-79.64 187.11,-103.32 187.11,-103.32"/>
<polygon fill="black" stroke="black" points="183.61,-103.32 187.11,-113.32 190.61,-103.32 183.61,-103.32"/>
</g>
<!-- NotesService -->
<g id="node2" class="node">
<title>NotesService</title>
<ellipse fill="#fdb462" stroke="black" cx="87" cy="-66.8" rx="62.54" ry="18"/>
<text text-anchor="middle" x="87" y="-62.6" font-family="Times,serif" font-size="14.00">NotesService</text>
</g>
<!-- NotesService&#45;&gt;NotesModule -->
<g id="edge2" class="edge">
<title>NotesService&#45;&gt;NotesModule</title>
<path fill="none" stroke="black" d="M132.21,-79.33C132.21,-79.33 132.21,-103.65 132.21,-103.65"/>
<polygon fill="black" stroke="black" points="128.71,-103.65 132.21,-113.65 135.71,-103.65 128.71,-103.65"/>
</g>
</g>
</svg>
