<?xml version="1.0" encoding="UTF-8" standalone="no"?>
<!DOCTYPE svg PUBLIC "-//W3C//DTD SVG 1.1//EN"
 "http://www.w3.org/Graphics/SVG/1.1/DTD/svg11.dtd">
<!-- Generated by graphviz version 2.47.3 (20210619.1520)
 -->
<!-- Title: dependencies Pages: 1 -->
<svg width="510pt" height="174pt"
 viewBox="0.00 0.00 510.00 173.80" xmlns="http://www.w3.org/2000/svg" xmlns:xlink="http://www.w3.org/1999/xlink">
<g id="graph0" class="graph" transform="scale(1 1) rotate(0) translate(4 169.8)">
<title>dependencies</title>
<polygon fill="white" stroke="transparent" points="-4,4 -4,-169.8 506,-169.8 506,4 -4,4"/>
<text text-anchor="middle" x="251" y="-8.2" font-family="sans-serif" font-size="14.00">dependencies</text>
<g id="clust1" class="cluster">
<title>cluster_AppModule</title>
<polygon fill="none" stroke="black" stroke-dasharray="1,5" points="8,-32.8 8,-157.8 494,-157.8 494,-32.8 8,-32.8"/>
</g>
<g id="clust3" class="cluster">
<title>cluster_AppModule_imports</title>
<polygon fill="none" stroke="black" points="154,-40.8 154,-92.8 486,-92.8 486,-40.8 154,-40.8"/>
</g>
<g id="clust6" class="cluster">
<title>cluster_AppModule_providers</title>
<polygon fill="none" stroke="black" points="16,-40.8 16,-92.8 146,-92.8 146,-40.8 16,-40.8"/>
</g>
<!-- AuthModule -->
<g id="node1" class="node">
<title>AuthModule</title>
<polygon fill="#8dd3c7" stroke="black" points="477.55,-84.8 474.55,-88.8 453.55,-88.8 450.55,-84.8 390.45,-84.8 390.45,-48.8 477.55,-48.8 477.55,-84.8"/>
<text text-anchor="middle" x="434" y="-62.6" font-family="Times,serif" font-size="14.00">AuthModule</text>
</g>
<!-- AppModule -->
<g id="node4" class="node">
<title>AppModule</title>
<polygon fill="#8dd3c7" stroke="black" points="306.66,-149.8 303.66,-153.8 282.66,-153.8 279.66,-149.8 223.34,-149.8 223.34,-113.8 306.66,-113.8 306.66,-149.8"/>
<text text-anchor="middle" x="265" y="-127.6" font-family="Times,serif" font-size="14.00">AppModule</text>
</g>
<!-- AuthModule&#45;&gt;AppModule -->
<g id="edge1" class="edge">
<title>AuthModule&#45;&gt;AppModule</title>
<path fill="none" stroke="black" d="M434,-84.91C434,-104.14 434,-131.8 434,-131.8 434,-131.8 316.78,-131.8 316.78,-131.8"/>
<polygon fill="black" stroke="black" points="316.78,-128.3 306.78,-131.8 316.78,-135.3 316.78,-128.3"/>
</g>
<!-- LoggerModule -->
<g id="node2" class="node">
<title>LoggerModule</title>
<polygon fill="#8dd3c7" stroke="black" points="371.98,-84.8 368.98,-88.8 347.98,-88.8 344.98,-84.8 272.02,-84.8 272.02,-48.8 371.98,-48.8 371.98,-84.8"/>
<text text-anchor="middle" x="322" y="-62.6" font-family="Times,serif" font-size="14.00">LoggerModule</text>
</g>
<!-- LoggerModule&#45;&gt;AppModule -->
<g id="edge2" class="edge">
<title>LoggerModule&#45;&gt;AppModule</title>
<path fill="none" stroke="black" d="M289.42,-84.91C289.42,-84.91 289.42,-103.79 289.42,-103.79"/>
<polygon fill="black" stroke="black" points="285.92,-103.79 289.42,-113.79 292.92,-103.79 285.92,-103.79"/>
</g>
<!-- NotesModule -->
<g id="node3" class="node">
<title>NotesModule</title>
<polygon fill="#8dd3c7" stroke="black" points="254.21,-84.8 251.21,-88.8 230.21,-88.8 227.21,-84.8 161.79,-84.8 161.79,-48.8 254.21,-48.8 254.21,-84.8"/>
<text text-anchor="middle" x="208" y="-62.6" font-family="Times,serif" font-size="14.00">NotesModule</text>
</g>
<!-- NotesModule&#45;&gt;AppModule -->
<g id="edge3" class="edge">
<title>NotesModule&#45;&gt;AppModule</title>
<path fill="none" stroke="black" d="M238.64,-84.91C238.64,-84.91 238.64,-103.79 238.64,-103.79"/>
<polygon fill="black" stroke="black" points="235.14,-103.79 238.64,-113.79 242.14,-103.79 235.14,-103.79"/>
</g>
<!-- AppService -->
<g id="node5" class="node">
<title>AppService</title>
<ellipse fill="#fdb462" stroke="black" cx="81" cy="-66.8" rx="56.74" ry="18"/>
<text text-anchor="middle" x="81" y="-62.6" font-family="Times,serif" font-size="14.00">AppService</text>
</g>
<!-- AppService&#45;&gt;AppModule -->
<g id="edge4" class="edge">
<title>AppService&#45;&gt;AppModule</title>
<path fill="none" stroke="black" d="M81,-84.91C81,-104.14 81,-131.8 81,-131.8 81,-131.8 213.25,-131.8 213.25,-131.8"/>
<polygon fill="black" stroke="black" points="213.25,-135.3 223.25,-131.8 213.25,-128.3 213.25,-135.3"/>
</g>
</g>
</svg>
