<?xml version="1.0" encoding="UTF-8" standalone="no"?>
<!DOCTYPE svg PUBLIC "-//W3C//DTD SVG 1.1//EN"
 "http://www.w3.org/Graphics/SVG/1.1/DTD/svg11.dtd">
<!-- Generated by graphviz version 2.47.3 (20210619.1520)
 -->
<!-- Title: dependencies Pages: 1 -->
<svg width="372pt" height="174pt"
 viewBox="0.00 0.00 372.00 173.80" xmlns="http://www.w3.org/2000/svg" xmlns:xlink="http://www.w3.org/1999/xlink">
<g id="graph0" class="graph" transform="scale(1 1) rotate(0) translate(4 169.8)">
<title>dependencies</title>
<polygon fill="white" stroke="transparent" points="-4,4 -4,-169.8 368,-169.8 368,4 -4,4"/>
<text text-anchor="middle" x="182" y="-8.2" font-family="sans-serif" font-size="14.00">dependencies</text>
<g id="clust1" class="cluster">
<title>cluster_AppModule</title>
<polygon fill="none" stroke="black" stroke-dasharray="1,5" points="8,-32.8 8,-157.8 356,-157.8 356,-32.8 8,-32.8"/>
</g>
<g id="clust3" class="cluster">
<title>cluster_AppModule_imports</title>
<polygon fill="none" stroke="black" points="16,-40.8 16,-92.8 348,-92.8 348,-40.8 16,-40.8"/>
</g>
<!-- AuthModule -->
<g id="node1" class="node">
<title>AuthModule</title>
<polygon fill="#8dd3c7" stroke="black" points="339.55,-84.8 336.55,-88.8 315.55,-88.8 312.55,-84.8 252.45,-84.8 252.45,-48.8 339.55,-48.8 339.55,-84.8"/>
<text text-anchor="middle" x="296" y="-62.6" font-family="Times,serif" font-size="14.00">AuthModule</text>
</g>
<!-- AppModule -->
<g id="node4" class="node">
<title>AppModule</title>
<polygon fill="#8dd3c7" stroke="black" points="225.66,-149.8 222.66,-153.8 201.66,-153.8 198.66,-149.8 142.34,-149.8 142.34,-113.8 225.66,-113.8 225.66,-149.8"/>
<text text-anchor="middle" x="184" y="-127.6" font-family="Times,serif" font-size="14.00">AppModule</text>
</g>
<!-- AuthModule&#45;&gt;AppModule -->
<g id="edge1" class="edge">
<title>AuthModule&#45;&gt;AppModule</title>
<path fill="none" stroke="black" d="M296,-84.91C296,-104.14 296,-131.8 296,-131.8 296,-131.8 235.7,-131.8 235.7,-131.8"/>
<polygon fill="black" stroke="black" points="235.7,-128.3 225.7,-131.8 235.7,-135.3 235.7,-128.3"/>
</g>
<!-- LoggerModule -->
<g id="node2" class="node">
<title>LoggerModule</title>
<polygon fill="#8dd3c7" stroke="black" points="233.98,-84.8 230.98,-88.8 209.98,-88.8 206.98,-84.8 134.02,-84.8 134.02,-48.8 233.98,-48.8 233.98,-84.8"/>
<text text-anchor="middle" x="184" y="-62.6" font-family="Times,serif" font-size="14.00">LoggerModule</text>
</g>
<!-- LoggerModule&#45;&gt;AppModule -->
<g id="edge2" class="edge">
<title>LoggerModule&#45;&gt;AppModule</title>
<path fill="none" stroke="black" d="M184,-84.91C184,-84.91 184,-103.79 184,-103.79"/>
<polygon fill="black" stroke="black" points="180.5,-103.79 184,-113.79 187.5,-103.79 180.5,-103.79"/>
</g>
<!-- NotesModule -->
<g id="node3" class="node">
<title>NotesModule</title>
<polygon fill="#8dd3c7" stroke="black" points="116.21,-84.8 113.21,-88.8 92.21,-88.8 89.21,-84.8 23.79,-84.8 23.79,-48.8 116.21,-48.8 116.21,-84.8"/>
<text text-anchor="middle" x="70" y="-62.6" font-family="Times,serif" font-size="14.00">NotesModule</text>
</g>
<!-- NotesModule&#45;&gt;AppModule -->
<g id="edge3" class="edge">
<title>NotesModule&#45;&gt;AppModule</title>
<path fill="none" stroke="black" d="M70,-84.91C70,-104.14 70,-131.8 70,-131.8 70,-131.8 132.2,-131.8 132.2,-131.8"/>
<polygon fill="black" stroke="black" points="132.2,-135.3 142.2,-131.8 132.2,-128.3 132.2,-135.3"/>
</g>
</g>
</svg>
